#!OML:ASF H:\Dans Jumps\Project 1\Capture day 1\Session 1\subject.ASF
:FULLY-SPECIFIED
:DEGREES
82
root 0.62772 17.5344 -13.9648 5.99137 -1.87659 -1.73791
lowerback -3.33976 -0.579246 0.321931
upperback 2.40266 -0.872231 2.00529
thorax 4.37959 -0.456947 1.82896
lowerneck -14.6783 0.245466 -2.39463
upperneck 24.4561 0.825338 0.50627
head 10.2144 0.213143 0.690842
rclavicle 8.15017e-015 -4.77083e-015
rhumerus -25.5781 -15.6375 -78.3301
rradius 24.63
rwrist 32.037
rhand -19.3039 -26.128
rfingers 7.12502
rthumb 7.01181 -55.9918
lclavicle 8.15017e-015 -4.77083e-015
lhumerus -22.1514 -2.50908 87.3656
lradius 19.5625
lwrist 3.71412
lhand -23.7034 -3.42442
lfingers 7.12502
lthumb 2.76383 26.5374
rfemur -11.6091 -3.55259 20.3033
rtibia 20.6019
rfoot -13.8772 -1.51973
rtoes 13.3141
lfemur -11.2035 7.64805 -17.8807
ltibia 19.0202
lfoot -11.5421 6.09579
ltoes -4.11442
83
root 0.629225 17.5341 -13.9656 5.98889 -1.87156 -1.74177
lowerback -3.33488 -0.580043 0.324362
upperback 2.40516 -0.873467 2.00693
thorax 4.37945 -0.457524 1.82924
lowerneck -14.6629 0.237613 -2.4138
upperneck 24.4815 0.81357 0.526546
head 10.2207 0.208094 0.699812
rclavicle 1.04362e-015 2.38542e-015
rhumerus -25.5644 -15.6279 -78.3362
rradius 24.6365
rwrist 32.0317
rhand -19.305 -26.1185
rfingers 7.12502
rthumb 7.01076 -55.9824
lclavicle 1.04362e-015 2.38542e-015
lhumerus -22.1573 -2.48601 87.3547
lradius 19.5583
lwrist 3.69283
lhand -23.7054 -3.42991
lfingers 7.12502
lthumb 2.76189 26.532
rfemur -11.6095 -3.54591 20.3022
rtibia 20.604
rfoot -13.8766 -1.53263
rtoes 13.2994
lfemur -11.2134 7.64885 -17.8821
ltibia 19.0366
lfoot -11.5498 6.0962
ltoes -4.13265
84
root 0.630756 17.5339 -13.9665 5.9871 -1.86546 -1.74557
lowerback -3.33094 -0.580748 0.326685
upperback 2.40806 -0.8746 2.00871
thorax 4.38025 -0.458061 1.82974
lowerneck -14.6457 0.228802 -2.43225
upperneck 24.5036 0.80086 0.544252
head 10.2254 0.202411 0.707604
rclavicle 8.49804e-015 -1.23246e-014
rhumerus -25.5513 -15.6229 -78.3398
rradius 24.6415
rwrist 32.0285
rhand -19.3048 -26.123
rfingers 7.12502
rthumb 7.01096 -55.9869
lclavicle 8.49804e-015 -1.23246e-014
lhumerus -22.1623 -2.46451 87.3467
lradius 19.5544
lwrist 3.6765
lhand -23.7127 -3.4359
lfingers 7.12502
lthumb 2.75482 26.5261
rfemur -11.6104 -3.54446 20.301
rtibia 20.6056
rfoot -13.876 -1.54132
rtoes 13.2875
lfemur -11.2246 7.65116 -17.8837
ltibia 19.0536
lfoot -11.5583 6.09382
ltoes -4.15003
85
root 0.63225 17.5336 -13.9676 5.98477 -1.8594 -1.74817
lowerback -3.32395 -0.580784 0.327533
upperback 2.40951 -0.874637 2.00933
thorax 4.37779 -0.458065 1.82995
lowerneck -14.6356 0.221518 -2.43923
upperneck 24.533 0.789805 0.553509
head 10.2342 0.197478 0.710763
rclavicle -7.95139e-016 -3.18055e-015
rhumerus -25.5422 -15.6262 -78.3402
rradius 24.6449
rwrist 32.0266
rhand -19.304 -26.1319
rfingers 7.12502
rthumb 7.01174 -55.9958
lclavicle -7.95139e-016 -3.18055e-015
lhumerus -22.1689 -2.44243 87.3396
lradius 19.5497
lwrist 3.65838
lhand -23.723 -3.43814
lfingers 7.12502
lthumb 2.74488 26.5239
rfemur -11.6115 -3.54409 20.2987
rtibia 20.6073
rfoot -13.8743 -1.54921
rtoes 13.2754
lfemur -11.2357 7.65396 -17.8865
ltibia 19.0701
lfoot -11.565 6.09135
ltoes -4.16832
86
root 0.633751 17.5334 -13.9687 5.98194 -1.85393 -1.75278
lowerback -3.31575 -0.580173 0.330726
upperback 2.41052 -0.873921 2.01032
thorax 4.37413 -0.457624 1.8293
lowerneck -14.629 0.215292 -2.43736
upperneck 24.5652 0.780642 0.552999
head 10.2448 0.193057 0.709248
rclavicle -4.22417e-015 -3.97569e-015
rhumerus -25.5364 -15.6323 -78.3381
rradius 24.6465
rwrist 32.026
rhand -19.3078 -26.1443
rfingers 7.12502
rthumb 7.00803 -56.0083
lclavicle -4.22417e-015 -3.97569e-015
lhumerus -22.1753 -2.42518 87.3354
lradius 19.544
lwrist 3.64265
lhand -23.7385 -3.43317
lfingers 7.12502
lthumb 2.72992 26.5291
rfemur -11.6124 -3.54472 20.2984
rtibia 20.609
rfoot -13.8725 -1.55543
rtoes 13.262
lfemur -11.2463 7.65657 -17.887
ltibia 19.0864
lfoot -11.5712 6.08985
ltoes -4.18602
87
root 0.635294 17.5331 -13.9698 5.97775 -1.84732 -1.75578
lowerback -3.30499 -0.579886 0.333206
upperback 2.41161 -0.873516 2.01024
thorax 4.3691 -0.457339 1.82793
lowerneck -14.633 0.21151 -2.42344
upperneck 24.6053 0.774925 0.54201
head 10.2603 0.190021 0.702522
rclavicle -2.5345e-015 -9.54166e-015
rhumerus -25.5301 -15.6495 -78.3333
rradius 24.6436
rwrist 32.0327
rhand -19.3119 -26.1517
rfingers 7.12502
rthumb 7.00406 -56.0158
lclavicle -2.5345e-015 -9.54166e-015
lhumerus -22.1807 -2.40771 87.3324
lradius 19.5359
lwrist 3.62574
lhand -23.7564 -3.43406
lfingers 7.12502
lthumb 2.71266 26.5284
rfemur -11.6122 -3.54729 20.2961
rtibia 20.6118
rfoot -13.8721 -1.55935
rtoes 13.2518
lfemur -11.2552 7.65902 -17.8894
ltibia 19.1013
lfoot -11.5778 6.08652
ltoes -4.20323
88
root 0.636859 17.5329 -13.971 5.97332 -1.84231 -1.76143
lowerback -3.2948 -0.578645 0.338488
upperback 2.41305 -0.872022 2.01075
thorax 4.36469 -0.45644 1.82567
lowerneck -14.6452 0.208986 -2.40215
upperneck 24.6535 0.771528 0.522864
head 10.2804 0.187691 0.692039
rclavicle -5.1684e-015 3.1408e-014
rhumerus -25.5247 -15.6734 -78.3256
rradius 24.6366
rwrist 32.0504
rhand -19.323 -26.1511
rfingers 7.12502
rthumb 6.99339 -56.0156
lclavicle -5.1684e-015 3.1408e-014
lhumerus -22.1842 -2.38868 87.3312
lradius 19.5249
lwrist 3.60568
lhand -23.7661 -3.42442
lfingers 7.12502
lthumb 2.70321 26.5382
rfemur -11.6125 -3.5484 20.2967
rtibia 20.6162
rfoot -13.8723 -1.56375
rtoes 13.2353
lfemur -11.2623 7.65962 -17.8887
ltibia 19.1139
lfoot -11.5818 6.086
ltoes -4.21984
89
root 0.638449 17.5326 -13.972 5.96729 -1.83693 -1.7642
lowerback -3.28486 -0.577662 0.341276
upperback 2.41584 -0.870737 2.01032
thorax 4.36187 -0.455715 1.82382
lowerneck -14.6557 0.206161 -2.38323
upperneck 24.7015 0.768227 0.503923
head 10.3001 0.185214 0.682024
rclavicle 3.37934e-015 7.95139e-015
rhumerus -25.5181 -15.7032 -78.3163
rradius 24.6266
rwrist 32.072
rhand -19.3325 -26.1418
rfingers 7.12502
rthumb 6.98417 -56.0066
lclavicle 3.37934e-015 7.95139e-015
lhumerus -22.1848 -2.37021 87.331
lradius 19.5119
lwrist 3.58395
lhand -23.766 -3.4071
lfingers 7.12502
lthumb 2.70335 26.5555
rfemur -11.6117 -3.55036 20.2939
rtibia 20.6228
rfoot -13.8749 -1.56688
rtoes 13.2309
lfemur -11.2656 7.65885 -17.891
ltibia 19.1235
lfoot -11.5858 6.08558
ltoes -4.23685
90
root 0.640041 17.5324 -13.973 5.95858 -1.83414 -1.76143
lowerback -3.27414 -0.575596 0.338878
upperback 2.41966 -0.867658 2.00783
thorax 4.35964 -0.454226 1.82289
lowerneck -14.6619 0.203005 -2.36305
upperneck 24.7496 0.7647 0.482387
head 10.3191 0.182448 0.67082
rclavicle 1.40143e-014 9.93923e-015
rhumerus -25.5142 -15.74 -78.3041
rradius 24.621
rwrist 32.1069
rhand -19.3353 -26.1072
rfingers 7.12502
rthumb 6.9815 -55.9721
lclavicle 1.40143e-014 9.93923e-015
lhumerus -22.1824 -2.35575 87.3314
lradius 19.5015
lwrist 3.56137
lhand -23.7533 -3.37454
lfingers 7.12502
lthumb 2.71557 26.5879
rfemur -11.6086 -3.55135 20.2847
rtibia 20.6309
rfoot -13.8787 -1.56952
rtoes 13.2282
lfemur -11.2645 7.66493 -17.8993
ltibia 19.1312
lfoot -11.5914 6.07892
ltoes -4.24669
